# xmcd
#
# Track frame offsets:
#   150
#   14192
#   31469
#   46796
#   60816
#   74958
#   90248
#   104943
#   121123
#   135093
#   147943
#   162656
#   179630
#   194727
#   210848
#   226113
#   240589
#   258231
#   269984
#   282033
#   293330
#   307076
#   320312
#   335562
#
# Disc length: 4628 seconds
#
# Revision: 0
# Processed by: cddbd v1.5.1PL2 Copyright (c) Steve Scherf et al.
# Submitted via: uFREEDB ActiveX Control 1.5
#
DISCID=68121218
DTITLE=chicorey e parana - chicorey e parana
DYEAR=1900
DGENRE=Country
TTITLE0=chicorey e parana
TTITLE1=chicorey e parana
TTITLE2=chicorey e parana
TTITLE3=chicorey e parana
TTITLE4=chicorey e parana
TTITLE5=chicorey e parana
TTITLE6=chicorey e parana
TTITLE7=chicorey e parana
TTITLE8=chicorey e parana
TTITLE9=chicorey e parana
TTITLE10=chicorey e parana
TTITLE11=chicorey e parana
TTITLE12=chicorey e parana
TTITLE13=chcorey e parana
TTITLE14=chicirey e parana
TTITLE15=chicorey e parana
TTITLE16=chicorey e parana
TTITLE17=chicorey e parana
TTITLE18=chicorey e parana
TTITLE19=chicorey e parana
TTITLE20=chicorey e parana
TTITLE21=chicorey e parana
TTITLE22=chicorey e parana
TTITLE23=chicorey e parana
EXTD=
EXTT0=
EXTT1=
EXTT2=
EXTT3=
EXTT4=
EXTT5=
EXTT6=
EXTT7=
EXTT8=
EXTT9=
EXTT10=
EXTT11=
EXTT12=
EXTT13=
EXTT14=
EXTT15=
EXTT16=
EXTT17=
EXTT18=
EXTT19=
EXTT20=
EXTT21=
EXTT22=
EXTT23=
PLAYORDER=
